HIERARCHY
ROOT Hips
{
    OFFSET 0.000000 0.000000 0.000000
    CHANNELS 6 Xposition Yposition Zposition Zrotation Xrotation Yrotation
    JOINT Spine
    {
        OFFSET -0.000000 14.517291 0.000000
        CHANNELS 3 Zrotation Xrotation Yrotation
        JOINT Spine1
        {
            OFFSET -0.000000 37.558300 0.000000
            CHANNELS 3 Zrotation Xrotation Yrotation
            JOINT Neck
            {
                OFFSET -0.000000 37.404057 3.400369
                CHANNELS 3 Zrotation Xrotation Yrotation
                JOINT Head
                {
                    OFFSET -0.000000 24.785618 -3.540803
                    CHANNELS 3 Zrotation Xrotation Yrotation
                    End Site
                    {
                        OFFSET -0.000000 35.408028 0.000000
                    }
                }
            }
            JOINT LeftShoulder
            {
                OFFSET 6.992933 33.973492 -0.192664
                CHANNELS 3 Zrotation Xrotation Yrotation
                JOINT LeftArm
                {
                    OFFSET 21.527611 0.000000 0.000000
                    CHANNELS 3 Zrotation Xrotation Yrotation
                    JOINT LeftForeArm
                    {
                        OFFSET 56.353916 0.000000 0.000000
                        CHANNELS 3 Zrotation Xrotation Yrotation
                        JOINT LeftHand
                        {
                            OFFSET 47.774071 0.000000 0.000000
                            CHANNELS 3 Zrotation Xrotation Yrotation
                            End Site
                            {
                                OFFSET 26.556021 0.000000 0.000000
                            }
                        }
                    }
                }
            }
            JOINT RightShoulder
            {
                OFFSET -7.065357 33.973492 -0.192664
                CHANNELS 3 Zrotation Xrotation Yrotation
                JOINT RightArm
                {
                    OFFSET -21.527611 0.000000 0.000000
                    CHANNELS 3 Zrotation Xrotation Yrotation
                    JOINT RightForeArm
                    {
                        OFFSET -56.353916 0.000000 0.000000
                        CHANNELS 3 Zrotation Xrotation Yrotation
                        JOINT RightHand
                        {
                            OFFSET -47.774071 0.000000 0.000000
                            CHANNELS 3 Zrotation Xrotation Yrotation
                            End Site
                            {
                                OFFSET -26.556021 0.000000 0.000000
                            }
                        }
                    }
                }
            }
        }
    }
    JOINT LeftUpLeg
    {
        OFFSET 17.704014 0.000000 0.000000
        CHANNELS 3 Zrotation Xrotation Yrotation
        JOINT LeftLeg
        {
            OFFSET -0.000000 -81.181816 0.000000
            CHANNELS 3 Zrotation Xrotation Yrotation
            JOINT LeftFoot
            {
                OFFSET -0.000000 -62.821102 0.000000
                CHANNELS 3 Zrotation Xrotation Yrotation
                JOINT LeftToeBase
                {
                    OFFSET -0.000000 -11.507608 26.556021
                    CHANNELS 3 Zrotation Xrotation Yrotation
                    End Site
                    {
                        OFFSET -0.000000 0.000000 7.081605
                    }
                }
            }
        }
    }
    JOINT RightUpLeg
    {
        OFFSET -17.704014 0.000000 0.000000
        CHANNELS 3 Zrotation Xrotation Yrotation
        JOINT RightLeg
        {
            OFFSET -0.000000 -81.181816 0.000000
            CHANNELS 3 Zrotation Xrotation Yrotation
            JOINT RightFoot
            {
                OFFSET -0.000000 -62.821102 0.000000
                CHANNELS 3 Zrotation Xrotation Yrotation
                JOINT RightToeBase
                {
                    OFFSET -0.000000 -11.507608 26.556021
                    CHANNELS 3 Zrotation Xrotation Yrotation
                    End Site
                    {
                        OFFSET -0.000000 0.000000 7.081605
                    }
                }
            }
        }
    }
}
MOTION
Frames:    9
Frame Time:    0.008333
-15.697044    150.609894    -62.629570    -23.202927    -15.149091    22.774197    -9.326619    7.856171    -1.203096    -9.698717    -0.791842    -0.688381    -1.182616    0.442674    -15.346099    22.589256    3.944718    -13.423107    2.224294    9.136480    -14.885970    -32.377666    21.664383    -50.309273    0.327646    -34.314651    -116.751389    -6.684616    -33.406128    -9.600469    0.944134    12.478257    -5.642644    33.380234    19.097172    47.376610    -5.899284    11.003635    51.628990    -19.484505    7.816733    34.355579    48.721882    -7.725430    2.203079    -22.747524    54.404320    -10.096513    4.180806    -39.014862    45.141834    0.000000    0.000000    0.000000    11.873345    -19.492283    -1.912464    9.826481    12.779298    -10.474935    4.550525    17.743120    -14.426957    0.000000    0.000000    0.000000    
-15.666350    150.608246    -62.656731    -23.175892    -15.139633    22.835526    -9.340953    7.847852    -1.220927    -9.663302    -0.791370    -0.694139    -1.172935    0.452980    -15.353588    22.594055    3.987763    -13.440580    2.244637    9.119424    -14.902802    -32.334530    21.660625    -50.337479    0.288498    -34.275833    -116.768707    -6.680526    -33.418331    -9.636495    0.961770    12.490402    -5.660140    33.365120    19.067528    47.355103    -5.817603    11.054120    51.549744    -19.500364    7.815287    34.372677    48.683086    -7.758653    2.188306    -22.770262    54.376286    -10.070820    4.217335    -39.011086    45.136005    0.000000    0.000000    0.000000    11.807024    -19.508274    -1.921506    9.846330    12.790021    -10.498097    4.577186    17.726496    -14.460039    0.000000    0.000000    0.000000    
-15.638285    150.605270    -62.680317    -23.146339    -15.137655    22.890940    -9.349659    7.844961    -1.224262    -9.649008    -0.797065    -0.695733    -1.138086    0.467572    -15.375776    22.592293    4.034988    -13.478826    2.283084    9.105041    -14.937897    -32.246967    21.670952    -50.436737    -0.113867    -34.360924    -117.039383    -6.698227    -34.080040    -8.961955    0.998445    12.493100    -5.684450    33.342903    19.053047    47.322987    -5.754802    11.110861    51.466770    -19.550434    7.814054    34.412403    48.639992    -7.751093    2.252449    -22.638147    54.330891    -10.204472    4.284861    -39.020302    45.105694    0.000000    0.000000    0.000000    11.745368    -19.515022    -1.938686    9.861746    12.803044    -10.504871    4.590151    17.713211    -14.476913    0.000000    0.000000    0.000000    
-15.612925    150.599228    -62.698601    -23.117887    -15.133037    22.940716    -9.358774    7.833703    -1.231621    -9.632536    -0.804711    -0.698610    -1.130280    0.487550    -15.388689    22.631685    4.087999    -13.500143    2.319126    9.079797    -14.963594    -32.221180    21.691889    -50.450462    -0.101907    -34.376118    -117.042732    -6.718293    -34.077877    -8.958774    1.023796    12.504951    -5.683508    33.327843    19.034491    47.278660    -5.705169    11.151230    51.401703    -19.564001    7.817389    34.441204    48.598339    -7.759483    2.345284    -22.480967    54.332897    -10.368498    4.312702    -39.034836    45.063725    0.000000    0.000000    0.000000    11.688721    -19.530703    -1.943789    9.877278    12.829787    -10.526682    4.609992    17.688158    -14.510484    0.000000    0.000000    0.000000    
-15.583187    150.594452    -62.708294    -23.071495    -15.151094    22.990976    -9.374584    7.830603    -1.227463    -9.622605    -0.784661    -0.695842    -1.120909    0.506614    -15.403248    22.684372    4.124498    -13.518748    2.351059    9.053994    -15.000734    -32.203121    21.677053    -50.447872    -0.127805    -34.358131    -117.071159    -6.725059    -34.095230    -8.943866    1.058931    12.515250    -5.690608    33.308994    19.011248    47.245529    -5.674785    11.199796    51.319096    -19.605539    7.825472    34.485039    48.544018    -7.744511    2.416004    -22.315773    54.338512    -10.542517    4.326077    -39.044983    45.024731    0.000000    0.000000    0.000000    11.625937    -19.512966    -1.963882    9.889582    12.851669    -10.543679    4.617128    17.666246    -14.525457    0.000000    0.000000    0.000000    
-15.552214    150.590591    -62.712944    -23.021437    -15.174371    23.033852    -9.390152    7.831388    -1.217907    -9.611877    -0.771594    -0.691840    -1.113800    0.526951    -15.416842    22.732464    4.161411    -13.536613    2.381021    9.017663    -15.028709    -32.209045    21.668808    -50.427803    -0.153092    -34.322159    -117.085121    -6.808244    -34.080967    -9.085585    1.082826    12.521169    -5.700602    33.308464    18.975599    47.217308    -5.626415    11.280754    51.228630    -19.642982    7.862824    34.506153    48.488075    -7.722479    2.497575    -22.139748    54.359837    -10.756908    4.366472    -39.046505    45.033436    0.000000    0.000000    0.000000    11.566009    -19.485714    -1.997919    9.896839    12.874953    -10.555931    4.607879    17.645361    -14.520777    0.000000    0.000000    0.000000    
-15.532650    150.584213    -62.715530    -22.983868    -15.193253    23.064594    -9.397706    7.834723    -1.212597    -9.598759    -0.780928    -0.691051    -1.095126    0.551106    -15.429610    22.751881    4.190761    -13.556889    2.397436    9.002850    -15.032978    -32.195847    21.649984    -50.415337    -0.189677    -34.289013    -117.114815    -6.811599    -34.096939    -9.090224    1.095067    12.518017    -5.692138    33.320412    18.972694    47.170910    -5.600275    11.324736    51.151680    -19.677048    7.867899    34.566845    48.453770    -7.703931    2.572252    -22.012756    54.378742    -10.916106    4.385258    -39.059345    45.024921    0.000000    0.000000    0.000000    11.529881    -19.467884    -2.000384    9.894669    12.895283    -10.584847    4.614466    17.619963    -14.519633    0.000000    0.000000    0.000000    
-15.511605    150.581238    -62.715137    -22.936827    -15.212772    23.088560    -9.417778    7.834612    -1.199243    -9.576695    -0.779858    -0.686848    -1.087539    0.583845    -15.435876    22.779221    4.195602    -13.563015    2.407216    8.985840    -15.035315    -32.203598    21.618313    -50.386948    -0.192298    -34.243561    -117.127335    -6.832664    -34.052303    -9.118610    1.107726    12.530315    -5.704182    33.313442    18.960014    47.168228    -5.563211    11.368413    51.063961    -19.721004    7.871197    34.588215    48.407661    -7.674634    2.596762    -21.949146    54.375774    -10.962974    4.381919    -39.061150    44.990345    0.000000    0.000000    0.000000    11.488893    -19.445837    -2.001053    9.895617    12.920941    -10.608130    4.595275    17.595745    -14.517458    0.000000    0.000000    0.000000    
-15.493166    150.581100    -62.713516    -22.898314    -15.235585    23.107624    -9.420441    7.833828    -1.190827    -9.568682    -0.778328    -0.683886    -1.070570    0.582088    -15.436653    22.774269    4.229515    -13.573612    2.411699    8.964468    -15.022775    -32.224522    21.606943    -50.299515    0.216418    -34.165016    -116.866837    -6.813300    -33.392166    -9.678575    1.116774    12.529439    -5.703906    33.334286    18.952539    47.147022    -5.531410    11.403502    50.989197    -19.737270    7.881088    34.592842    48.380886    -7.649399    2.602782    -21.933353    54.379555    -11.002145    4.393315    -39.055382    44.988285    0.000000    0.000000    0.000000    11.463635    -19.420174    -2.001066    9.885801    12.937325    -10.614896    4.587054    17.584743    -14.523322    0.000000    0.000000    0.000000    
